<svg width="25" height="25" viewBox="0 0 25 25" fill="none" xmlns="http://www.w3.org/2000/svg">
<path d="M12.5 22.9167C13.6458 22.9167 14.5833 21.9792 14.5833 20.8333H10.4167C10.4167 21.3859 10.6362 21.9158 11.0269 22.3065C11.4176 22.6972 11.9475 22.9167 12.5 22.9167ZM18.75 16.6667V11.4583C18.75 8.26042 17.0417 5.58334 14.0625 4.87501V4.16667C14.0625 3.30209 13.3646 2.60417 12.5 2.60417C11.6354 2.60417 10.9375 3.30209 10.9375 4.16667V4.87501C7.94791 5.58334 6.24999 8.25001 6.24999 11.4583V16.6667L4.90624 18.0104C4.24999 18.6667 4.70833 19.7917 5.63541 19.7917H19.3542C20.2812 19.7917 20.75 18.6667 20.0937 18.0104L18.75 16.6667Z" fill="#E1045F" fill-opacity="0.82"/>
</svg>
