<svg width="15" height="20" viewBox="0 0 15 20" fill="none" xmlns="http://www.w3.org/2000/svg">
<path d="M0 7.5C0 3.35786 3.35786 0 7.5 0V0C11.6421 0 15 3.35786 15 7.5V12.5C15 16.6421 11.6421 20 7.5 20V20C3.35786 20 0 16.6421 0 12.5V7.5Z" fill="#E1045F" fill-opacity="0.04"/>
<path d="M14.75 7.5V12.5C14.75 16.5041 11.5041 19.75 7.5 19.75C3.49594 19.75 0.25 16.5041 0.25 12.5V7.5C0.25 3.49594 3.49594 0.25 7.5 0.25C11.5041 0.25 14.75 3.49594 14.75 7.5Z" stroke="#E1045F" stroke-opacity="0.17" stroke-width="0.5"/>
</svg>
